<svg id="visual" viewBox="0 0 960 540" width="960" height="540" xmlns="http://www.w3.org/2000/svg" xmlns:xlink="http://www.w3.org/1999/xlink" version="1.1"><path d="M0 66L14.5 66C29 66 58 66 87.2 82.2C116.3 98.3 145.7 130.7 174.8 133.3C204 136 233 109 262 103.7C291 98.3 320 114.7 349 115.5C378 116.3 407 101.7 436.2 101.7C465.3 101.7 494.7 116.3 523.8 120C553 123.7 582 116.3 611 104.5C640 92.7 669 76.3 698 70C727 63.7 756 67.3 785.2 76.3C814.3 85.3 843.7 99.7 872.8 99.7C902 99.7 931 85.3 945.5 78.2L960 71L960 0L945.5 0C931 0 902 0 872.8 0C843.7 0 814.3 0 785.2 0C756 0 727 0 698 0C669 0 640 0 611 0C582 0 553 0 523.8 0C494.7 0 465.3 0 436.2 0C407 0 378 0 349 0C320 0 291 0 262 0C233 0 204 0 174.8 0C145.7 0 116.3 0 87.2 0C58 0 29 0 14.5 0L0 0Z" fill="#424b58"></path><path d="M0 271L14.5 253.8C29 236.7 58 202.3 87.2 214C116.3 225.7 145.7 283.3 174.8 292.3C204 301.3 233 261.7 262 246.3C291 231 320 240 349 241.8C378 243.7 407 238.3 436.2 236.7C465.3 235 494.7 237 523.8 247.8C553 258.7 582 278.3 611 272C640 265.7 669 233.3 698 210C727 186.7 756 172.3 785.2 183.2C814.3 194 843.7 230 872.8 241.7C902 253.3 931 240.7 945.5 234.3L960 228L960 69L945.5 76.2C931 83.3 902 97.7 872.8 97.7C843.7 97.7 814.3 83.3 785.2 74.3C756 65.3 727 61.7 698 68C669 74.3 640 90.7 611 102.5C582 114.3 553 121.7 523.8 118C494.7 114.3 465.3 99.7 436.2 99.7C407 99.7 378 114.3 349 113.5C320 112.7 291 96.3 262 101.7C233 107 204 134 174.8 131.3C145.7 128.7 116.3 96.3 87.2 80.2C58 64 29 64 14.5 64L0 64Z" fill="#323944"></path><path d="M0 309L14.5 299C29 289 58 269 87.2 281.5C116.3 294 145.7 339 174.8 351.7C204 364.3 233 344.7 262 336.7C291 328.7 320 332.3 349 326C378 319.7 407 303.3 436.2 297.8C465.3 292.3 494.7 297.7 523.8 311.2C553 324.7 582 346.3 611 337.3C640 328.3 669 288.7 698 269.8C727 251 756 253 785.2 274.7C814.3 296.3 843.7 337.7 872.8 345.7C902 353.7 931 328.3 945.5 315.7L960 303L960 226L945.5 232.3C931 238.7 902 251.3 872.8 239.7C843.7 228 814.3 192 785.2 181.2C756 170.3 727 184.7 698 208C669 231.3 640 263.7 611 270C582 276.3 553 256.7 523.8 245.8C494.7 235 465.3 233 436.2 234.7C407 236.3 378 241.7 349 239.8C320 238 291 229 262 244.3C233 259.7 204 299.3 174.8 290.3C145.7 281.3 116.3 223.7 87.2 212C58 200.3 29 234.7 14.5 251.8L0 269Z" fill="#222831"></path><path d="M0 460L14.5 460.8C29 461.7 58 463.3 87.2 469.7C116.3 476 145.7 487 174.8 489.8C204 492.7 233 487.3 262 480.2C291 473 320 464 349 461.2C378 458.3 407 461.7 436.2 467.8C465.3 474 494.7 483 523.8 481.3C553 479.7 582 467.3 611 462C640 456.7 669 458.3 698 460C727 461.7 756 463.3 785.2 468.7C814.3 474 843.7 483 872.8 485.8C902 488.7 931 485.3 945.5 483.7L960 482L960 301L945.5 313.7C931 326.3 902 351.7 872.8 343.7C843.7 335.7 814.3 294.3 785.2 272.7C756 251 727 249 698 267.8C669 286.7 640 326.3 611 335.3C582 344.3 553 322.7 523.8 309.2C494.7 295.7 465.3 290.3 436.2 295.8C407 301.3 378 317.7 349 324C320 330.3 291 326.7 262 334.7C233 342.7 204 362.3 174.8 349.7C145.7 337 116.3 292 87.2 279.5C58 267 29 287 14.5 297L0 307Z" fill="#1e232b"></path><path d="M0 541L14.5 541C29 541 58 541 87.2 541C116.3 541 145.7 541 174.8 541C204 541 233 541 262 541C291 541 320 541 349 541C378 541 407 541 436.2 541C465.3 541 494.7 541 523.8 541C553 541 582 541 611 541C640 541 669 541 698 541C727 541 756 541 785.2 541C814.3 541 843.7 541 872.8 541C902 541 931 541 945.5 541L960 541L960 480L945.5 481.7C931 483.3 902 486.7 872.8 483.8C843.7 481 814.3 472 785.2 466.7C756 461.3 727 459.7 698 458C669 456.3 640 454.7 611 460C582 465.3 553 477.7 523.8 479.3C494.7 481 465.3 472 436.2 465.8C407 459.7 378 456.3 349 459.2C320 462 291 471 262 478.2C233 485.3 204 490.7 174.8 487.8C145.7 485 116.3 474 87.2 467.7C58 461.3 29 459.7 14.5 458.8L0 458Z" fill="#1b1f25"></path></svg>